<svg width="40" height="40" viewBox="0 0 40 40" fill="none" xmlns="http://www.w3.org/2000/svg">
<path d="M13.125 21.5V12.25L20 8.6L26.875 12.25V21.5H23.125V15.5H16.875V21.5H13.125ZM20 36.05C25.5417 32.0167 29.6354 28.3583 32.2812 25.075C34.9271 21.7917 36.25 18.9 36.25 16.4C36.25 12.4737 34.6814 9.25875 31.5443 6.75525C28.4071 4.25175 24.559 3 20 3C15.441 3 11.5929 4.25175 8.45575 6.75525C5.31858 9.25875 3.75 12.4737 3.75 16.4C3.75 18.9 5.10417 21.7917 7.8125 25.075C10.5208 28.3583 14.5833 32.0167 20 36.05ZM20 40C13.2917 35.4333 8.28125 31.1917 4.96875 27.275C1.65625 23.3583 0 19.7333 0 16.4C0 11.4 2.01042 7.41667 6.03125 4.45C10.0521 1.48333 14.7083 0 20 0C25.2917 0 29.9479 1.48333 33.9688 4.45C37.9896 7.41667 40 11.4 40 16.4C40 19.7333 38.3438 23.3583 35.0312 27.275C31.7188 31.1917 26.7083 35.4333 20 40Z" fill="#CF2D3A"/>
</svg>
