<svg width="40" height="40" viewBox="0 0 40 40" fill="none" xmlns="http://www.w3.org/2000/svg">
<path d="M35.0562 38.3L20.025 23.25L14.1823 29.1C14.5485 29.6667 14.7732 30.2167 14.8564 30.75C14.9397 31.2833 14.9813 31.8667 14.9813 32.5C14.9813 34.6333 14.2655 36.4167 12.834 37.85C11.4024 39.2833 9.62131 40 7.49064 40C5.35997 40 3.57886 39.2833 2.14732 37.85C0.715772 36.4167 0 34.6333 0 32.5C0 30.3667 0.715772 28.5833 2.14732 27.15C3.57886 25.7167 5.35997 25 7.49064 25C8.08989 25 8.68082 25.0833 9.26342 25.25C9.84603 25.4167 10.4536 25.6667 11.0861 26L16.8789 20.2L10.9863 14.3C10.4203 14.5667 9.84603 14.75 9.26342 14.85C8.68082 14.95 8.08989 15 7.49064 15C5.35997 15 3.57886 14.2833 2.14732 12.85C0.715772 11.4167 0 9.63333 0 7.5C0 5.36667 0.715772 3.58333 2.14732 2.15C3.57886 0.716667 5.35997 0 7.49064 0C9.62131 0 11.4024 0.716667 12.834 2.15C14.2655 3.58333 14.9813 5.36667 14.9813 7.5C14.9813 8.13333 14.9397 8.73333 14.8564 9.3C14.7732 9.86667 14.5984 10.4 14.3321 10.9L40 36.6V38.3H35.0562ZM25.9176 17.65L22.6217 14.35L35.0562 1.9H40V3.55L25.9176 17.65ZM7.49064 12C8.75572 12 9.82106 11.5667 10.6866 10.7C11.5522 9.83333 11.985 8.76667 11.985 7.5C11.985 6.23333 11.5522 5.16667 10.6866 4.3C9.82106 3.43333 8.75572 3 7.49064 3C6.22555 3 5.16022 3.43333 4.29463 4.3C3.42905 5.16667 2.99625 6.23333 2.99625 7.5C2.99625 8.76667 3.42905 9.83333 4.29463 10.7C5.16022 11.5667 6.22555 12 7.49064 12ZM20.1248 21.15C20.3912 21.15 20.6159 21.0583 20.799 20.875C20.9821 20.6917 21.0737 20.4667 21.0737 20.2C21.0737 19.9333 20.9821 19.7083 20.799 19.525C20.6159 19.3417 20.3912 19.25 20.1248 19.25C19.8585 19.25 19.6338 19.3417 19.4507 19.525C19.2676 19.7083 19.176 19.9333 19.176 20.2C19.176 20.4667 19.2676 20.6917 19.4507 20.875C19.6338 21.0583 19.8585 21.15 20.1248 21.15ZM7.49064 37C8.75572 37 9.82106 36.5667 10.6866 35.7C11.5522 34.8333 11.985 33.7667 11.985 32.5C11.985 31.2333 11.5522 30.1667 10.6866 29.3C9.82106 28.4333 8.75572 28 7.49064 28C6.22555 28 5.16022 28.4333 4.29463 29.3C3.42905 30.1667 2.99625 31.2333 2.99625 32.5C2.99625 33.7667 3.42905 34.8333 4.29463 35.7C5.16022 36.5667 6.22555 37 7.49064 37Z" fill="#CF2D3A"/>
</svg>
