<svg width="40" height="40" viewBox="0 0 40 40" fill="none" xmlns="http://www.w3.org/2000/svg">
<path d="M4.44444 34.75V38.125C4.44444 38.6562 4.28472 39.1016 3.96528 39.4609C3.64583 39.8203 3.25 40 2.77778 40H1.66667C1.19444 40 0.798611 39.8203 0.479167 39.4609C0.159722 39.1016 0 38.6562 0 38.125V17.875L4.72222 1.875C4.90741 1.29167 5.21296 0.833333 5.63889 0.5C6.06481 0.166667 6.55556 0 7.11111 0H32.8889C33.4444 0 33.9352 0.166667 34.3611 0.5C34.787 0.833333 35.0926 1.29167 35.2778 1.875L40 17.875V38.125C40 38.6562 39.8403 39.1016 39.5208 39.4609C39.2014 39.8203 38.8056 40 38.3333 40H37.1667C36.6852 40 36.2963 39.8203 36 39.4609C35.7037 39.1016 35.5556 38.6562 35.5556 38.125V34.75H4.44444ZM4.61111 14.125H35.3889L32.3333 3.75H7.66667L4.61111 14.125ZM9.20917 27.875C10.0697 27.875 10.787 27.5469 11.3611 26.8906C11.9352 26.2344 12.2222 25.4375 12.2222 24.5C12.2222 23.5278 11.9306 22.7014 11.3472 22.0208C10.7639 21.3403 10.0556 21 9.22222 21C8.35804 21 7.62346 21.3389 7.0185 22.0166C6.41357 22.6942 6.11111 23.5171 6.11111 24.4853C6.11111 25.4534 6.41231 26.2604 7.01472 26.9062C7.61709 27.5521 8.34857 27.875 9.20917 27.875ZM30.8333 27.875C31.6975 27.875 32.4321 27.5469 33.0371 26.8906C33.642 26.2344 33.9444 25.4375 33.9444 24.5C33.9444 23.5278 33.6432 22.7014 33.0408 22.0208C32.4385 21.3403 31.707 21 30.8464 21C29.9858 21 29.2685 21.3389 28.6944 22.0166C28.1204 22.6942 27.8333 23.5171 27.8333 24.4853C27.8333 25.4534 28.125 26.2604 28.7083 26.9062C29.2917 27.5521 30 27.875 30.8333 27.875ZM3.33333 31H36.6667V17.875H3.33333V31Z" fill="#CF2D3A"/>
</svg>
